#!OML:ASF H:\Punching\Project 1\Capture day 1\Session 1\female.ASF
:FULLY-SPECIFIED
:DEGREES
1582
root -0.874525 14.6804 6.44931 13.4195 -36.644 -4.17286
lowerback -0.983027 -4.44565 -2.64705
upperback -5.32596 -6.06092 -0.146738
thorax -4.7003 -2.9362 1.49769
lowerneck 4.56517 14.4011 25.2843
upperneck 32.9828 22.1787 -11.1124
head 15.1983 11.7408 -5.55839
rclavicle -6.86553e-014 -1.59028e-015
rhumerus 10.1059 40.9099 -84.2941
rradius 125.835
rwrist -37.1042
rhand -21.2695 -9.19445
rfingers 7.12502
rthumb 5.11413 -39.1127
lclavicle -6.86553e-014 -1.59028e-015
lhumerus 40.513 -3.42912 60.723
lradius 48.3106
lwrist -18.883
lhand -3.53777 29.6858
lfingers 7.12502
lthumb 22.1978 58.4313
rfemur -50.2257 16.8921 16.5809
rtibia 43.0209
rfoot -6.35542 14.6705
rtoes 2.85856
lfemur 28.1921 3.20349 -14.0369
ltibia -9.54166e-015
lfoot -6.00822 14.5368
ltoes -30.0615
1583
root -0.869334 14.6731 6.46098 13.2697 -36.771 -4.28659
lowerback -0.719535 -4.73384 -2.57998
upperback -5.3373 -6.44533 0.074923
thorax -4.82755 -3.12232 1.72128
lowerneck 4.77152 14.5734 24.9572
upperneck 32.9977 22.6556 -11.6049
head 15.3093 11.874 -5.64223
rclavicle 4.09745e-014 1.35174e-014
rhumerus 10.731 41.3266 -83.775
rradius 125.652
rwrist -37.1423
rhand -21.3816 -9.30339
rfingers 7.12502
rthumb 5.00593 -39.2243
lclavicle 4.09745e-014 1.35174e-014
lhumerus 40.0178 -1.61189 61.785
lradius 47.3917
lwrist -18.6025
lhand -3.06037 28.8467
lfingers 7.12502
lthumb 22.656 57.5369
rfemur -50.0158 16.9425 16.7551
rtibia 43.1117
rfoot -6.34434 14.756
rtoes 3.04887
lfemur 28.5023 3.58713 -13.8156
ltibia -4.77083e-014
lfoot -5.99455 14.144
ltoes -30.3014
1584
root -0.86292 14.6686 6.47389 13.2035 -36.8616 -4.3649
lowerback -0.569255 -4.91963 -2.44002
upperback -5.35793 -6.68855 0.26189
thorax -4.9169 -3.24304 1.85813
lowerneck 4.88172 14.6887 24.5928
upperneck 32.9415 23.0334 -12.1228
head 15.3805 11.9561 -5.74561
rclavicle -1.27719e-014 -1.66979e-014
rhumerus 11.3064 41.6629 -83.2948
rradius 125.615
rwrist -37.2541
rhand -21.5281 -9.33391
rfingers 7.12502
rthumb 4.86443 -39.2581
lclavicle -1.27719e-014 -1.66979e-014
lhumerus 39.1392 -0.665257 62.113
lradius 48.3825
lwrist -15.6977
lhand -3.44919 28.9093
lfingers 7.12502
lthumb 22.2828 57.6446
rfemur -49.9155 17.019 16.8254
rtibia 43.194
rfoot -6.36108 14.7581
rtoes 3.13372
lfemur 28.6811 3.94564 -13.6319
ltibia -1.59028e-014
lfoot -5.9019 13.7777
ltoes -30.5914
1585
root -0.855716 14.6675 6.48825 13.1937 -36.9043 -4.37253
lowerback -0.548526 -5.00508 -2.25792
upperback -5.38162 -6.79422 0.403405
thorax -4.95203 -3.29965 1.91023
lowerneck 4.90079 14.7401 24.2051
upperneck 32.8295 23.2961 -12.6437
head 15.4118 11.9841 -5.86493
rclavicle -4.06515e-014 -3.4191e-014
rhumerus 11.7863 41.9012 -82.8728
rradius 125.752
rwrist -37.4556
rhand -21.6374 -9.39177
rfingers 7.12502
rthumb 4.75894 -39.3183
lclavicle -4.06515e-014 -3.4191e-014
lhumerus 37.9727 -0.50421 61.9279
lradius 50.9585
lwrist -10.7067
lhand -4.60768 29.7905
lfingers 7.12502
lthumb 21.1703 58.6546
rfemur -49.9213 17.1165 16.76
rtibia 43.2784
rfoot -6.41569 14.6634
rtoes 3.11098
lfemur 28.7278 4.26334 -13.5146
ltibia 1.90833e-014
lfoot -5.72698 13.4322
ltoes -30.8973
1586
root -0.848588 14.67 6.50315 13.2184 -36.877 -4.28657
lowerback -0.663749 -4.98438 -2.03424
upperback -5.39466 -6.75664 0.45756
thorax -4.92036 -3.29048 1.83255
lowerneck 4.80378 14.7189 23.8426
upperneck 32.6851 23.4097 -13.1169
head 15.4093 11.9516 -5.98991
rclavicle 2.40529e-014 1.59028e-015
rhumerus 12.1284 41.9784 -82.5806
rradius 126.044
rwrist -37.6991
rhand -21.6988 -9.41984
rfingers 7.12502
rthumb 4.69958 -39.3477
lclavicle 2.40529e-014 1.59028e-015
lhumerus 36.6826 -0.926358 61.4998
lradius 54.7095
lwrist -4.50784
lhand -6.3574 31.0745
lfingers 7.12502
lthumb 19.4888 60.1178
rfemur -50.0261 17.2321 16.5399
rtibia 43.3722
rfoot -6.51679 14.4485
rtoes 2.97049
lfemur 28.6415 4.51307 -13.4749
ltibia 4.13472e-014
lfoot -5.47137 13.0989
ltoes -31.1949
1587
root -0.842192 14.6762 6.51777 13.2539 -36.7464 -4.10535
lowerback -0.889539 -4.87683 -1.78881
upperback -5.39456 -6.60355 0.427084
thorax -4.82885 -3.22789 1.64211
lowerneck 4.6059 14.6273 23.5124
upperneck 32.5307 23.3737 -13.5127
head 15.3756 11.8615 -6.11045
rclavicle -6.77359e-014 -1.59028e-015
rhumerus 12.3059 41.9047 -82.4382
rradius 126.478
rwrist -37.9785
rhand -21.7132 -9.37331
rfingers 7.12502
rthumb 4.68573 -39.3015
lclavicle -6.77359e-014 -1.59028e-015
lhumerus 35.3566 -1.62602 61.1679
lradius 59.265
lwrist 1.83315
lhand -8.24283 32.5451
lfingers 7.12502
lthumb 17.6752 61.7617
rfemur -50.2003 17.3508 16.1737
rtibia 43.4783
rfoot -6.66616 14.0971
rtoes 2.71604
lfemur 28.4376 4.65849 -13.5035
ltibia -5.725e-014
lfoot -5.14285 12.771
ltoes -31.4726
1588
root -0.837065 14.6859 6.53135 13.2731 -36.4777 -3.83818
lowerback -1.17997 -4.71092 -1.54812
upperback -5.38256 -6.37418 0.337896
thorax -4.69555 -3.12883 1.38638
lowerneck 4.32845 14.4744 23.187
upperneck 32.3917 23.2051 -13.817
head 15.3155 11.7197 -6.21517
rclavicle 4.03036e-014 -6.36111e-015
rhumerus 12.3105 41.7224 -82.4337
rradius 127.024
rwrist -38.2785
rhand -21.666 -9.22915
rfingers 7.12502
rthumb 4.73127 -39.1563
lclavicle 4.03036e-014 -6.36111e-015
lhumerus 33.9868 -2.39684 61.0613
lradius 64.3235
lwrist 7.44853
lhand -9.86678 33.9774
lfingers 7.12502
lthumb 16.1119 63.3277
rfemur -50.4004 17.4583 15.682
rtibia 43.5988
rfoot -6.86245 13.5941
rtoes 2.36577
lfemur 28.1453 4.66341 -13.583
ltibia -2.54444e-014
lfoot -4.75607 12.4512
ltoes -31.7196
1589
root -0.833513 14.6987 6.54284 13.2616 -36.0379 -3.50521
lowerback -1.51206 -4.51034 -1.3074
upperback -5.34119 -6.10015 0.192737
thorax -4.51276 -3.00881 1.0686
lowerneck 3.97263 14.2707 22.8744
upperneck 32.2749 22.9185 -14.0224
head 15.236 11.533 -6.29841
rclavicle 1.09667e-013 1.11319e-014
rhumerus 12.1846 41.4298 -82.5646
rradius 127.647
rwrist -38.5464
rhand -21.4928 -9.07604
rfingers 7.12502
rthumb 4.89856 -38.9994
lclavicle 1.09667e-013 1.11319e-014
lhumerus 32.5867 -3.13248 61.1814
lradius 69.6107
lwrist 11.7909
lhand -10.9261 35.2059
lfingers 7.12502
lthumb 15.0917 64.6357
rfemur -50.5855 17.5342 15.0987
rtibia 43.73
rfoot -7.09961 12.9346
rtoes 1.9288
lfemur 26.8682 4.52781 -13.7481
ltibia 1.82914
lfoot -5.26973 12.1242
ltoes -31.9065
1590
root -0.831317 14.7142 6.55153 13.2013 -35.3933 -3.11626
lowerback -1.8392 -4.29903 -1.07585
upperback -5.27026 -5.81376 0.00682862
thorax -4.30216 -2.88236 0.715
lowerneck 3.5355 14.0252 22.5618
upperneck 32.2056 22.5292 -14.1232
head 15.1524 11.3064 -6.35283
rclavicle 2.60656e-014 -2.38542e-015
rhumerus 11.9639 41.0497 -82.7992
rradius 128.312
rwrist -38.7492
rhand -21.1812 -9.04938
rfingers 7.12502
rthumb 5.19938 -38.9656
lclavicle 2.60656e-014 -2.38542e-015
lhumerus 31.1299 -3.82142 61.4432
lradius 74.9609
lwrist 14.7619
lhand -11.3391 36.188
lfingers 7.12502
lthumb 14.6938 65.6473
rfemur -50.7144 17.5441 14.4505
rtibia 43.8697
rfoot -7.37162 12.1301
rtoes 1.42877
lfemur 25.1987 4.1893 -13.9345
ltibia 4.35513
lfoot -6.12079 11.8208
ltoes -32.0365
1591
root -0.830178 14.7322 6.55705 13.0945 -34.5296 -2.7008
lowerback -2.07922 -4.08829 -0.887004
upperback -5.20823 -5.53 -0.158519
thorax -4.14027 -2.75331 0.41567
lowerneck 3.04967 13.7323 22.1917
upperneck 32.2117 22.0479 -14.1353
head 15.0688 11.0387 -6.37897
rclavicle -8.94531e-015 -1.98785e-014
rhumerus 11.634 40.6868 -83.0545
rradius 128.947
rwrist -38.9476
rhand -20.9637 -8.94793
rfingers 7.12502
rthumb 5.40944 -38.8589
lclavicle -8.94531e-015 -1.98785e-014
lhumerus 29.5534 -4.42797 61.9047
lradius 80.233
lwrist 16.5026
lhand -11.0652 36.8533
lfingers 7.12502
lthumb 14.9577 66.2931
rfemur -50.7566 17.4668 13.7772
rtibia 44.0122
rfoot -7.67109 11.2043
rtoes 0.903399
lfemur 23.9849 3.61135 -14.0638
ltibia 5.92868
lfoot -6.48473 11.5869
ltoes -32.1127
1592
root -0.829757 14.752 6.55922 12.9398 -33.4419 -2.26778
lowerback -2.20742 -3.88775 -0.746388
upperback -5.15491 -5.26095 -0.292391
thorax -4.03991 -2.62756 0.185745
lowerneck 2.50428 13.3982 21.7633
upperneck 32.3005 21.4902 -14.0748
head 15 10.7345 -6.37907
rclavicle 2.04562e-014 1.11319e-014
rhumerus 11.253 40.3574 -83.2948
rradius 129.512
rwrist -39.1248
rhand -20.8642 -8.83293
rfingers 7.12502
rthumb 5.50543 -38.7414
lclavicle 2.04562e-014 1.11319e-014
lhumerus 27.8658 -4.92184 62.5415
lradius 85.3499
lwrist 17.4191
lhand -10.1727 37.1686
lfingers 7.12502
lthumb 15.8174 66.5424
rfemur -50.6933 17.2809 13.0973
rtibia 44.1563
rfoot -7.99533 10.1863
rtoes 0.376944
lfemur 22.897 2.80415 -14.1567
ltibia 7.22065
lfoot -6.71762 11.4382
ltoes -32.1445
1593
root -0.829951 14.7728 6.55831 12.7389 -32.1328 -1.82656
lowerback -2.20271 -3.69923 -0.658765
upperback -5.12517 -5.00865 -0.379492
thorax -4.02787 -2.50589 0.0444483
lowerneck 1.92586 13.0176 21.2616
upperneck 32.4763 20.8598 -13.9536
head 14.9452 10.3946 -6.35701
rclavicle 9.8181e-015 -7.95139e-016
rhumerus 10.8428 40.0892 -83.4881
rradius 129.982
rwrist -39.3106
rhand -20.973 -8.69587
rfingers 7.12502
rthumb 5.40042 -38.6071
lclavicle 9.8181e-015 -7.95139e-016
lhumerus 26.0625 -5.30022 63.3435
lradius 90.2816
lwrist 17.9883
lhand -8.78831 37.1518
lfingers 7.12502
lthumb 17.1502 66.4149
rfemur -50.5082 16.9705 12.4294
rtibia 44.2946
rfoot -8.34045 9.10571
rtoes -0.109097
lfemur 21.843 1.77463 -14.2155
ltibia 8.42863
lfoot -6.92966 11.3902
ltoes -32.131
1594
root -0.83073 14.7941 6.55455 12.4952 -30.6152 -1.37861
lowerback -2.07265 -3.52616 -0.628995
upperback -5.11253 -4.77709 -0.417498
thorax -4.09394 -2.39043 -0.00528653
lowerneck 1.31071 12.5946 20.6793
upperneck 32.728 20.1662 -13.7805
head 14.9049 10.0212 -6.31176
rclavicle -1.06613e-013 -2.38542e-015
rhumerus 10.4595 39.8799 -83.6113
rradius 130.347
rwrist -39.5195
rhand -21.2526 -8.55679
rfingers 7.12502
rthumb 5.13048 -38.4747
lclavicle -1.06613e-013 -2.38542e-015
lhumerus 24.1742 -5.55577 64.2653
lradius 95.0417
lwrist 18.6748
lhand -7.11528 36.9098
lfingers 7.12502
lthumb 18.7599 66.0251
rfemur -50.1965 16.5276 11.7819
rtibia 44.4257
rfoot -8.70843 7.98172
rtoes -0.515627
lfemur 20.7835 0.535033 -14.2457
ltibia 9.63674
lfoot -7.16286 11.4451
ltoes -32.066
1595
root -0.83211 14.8151 6.54798 12.2568 -28.9135 -0.982161
lowerback -1.86413 -3.3509 -0.585822
upperback -5.10305 -4.54161 -0.413034
thorax -4.20466 -2.27208 -0.0146314
lowerneck 0.647783 12.1305 20.0435
upperneck 33.0492 19.4116 -13.5658
head 14.8877 9.61739 -6.2494
rclavicle 1.04513e-013 1.55052e-014
rhumerus 10.1465 39.6701 -83.6515
rradius 130.618
rwrist -39.7547
rhand -21.619 -8.44302
rfingers 7.12502
rthumb 4.7767 -38.3692
lclavicle 1.04513e-013 1.55052e-014
lhumerus 22.2799 -5.73756 65.2431
lradius 99.6383
lwrist 19.8336
lhand -5.41422 36.5969
lfingers 7.12502
lthumb 20.3954 65.5458
rfemur -49.7764 15.9787 11.2045
rtibia 44.539
rfoot -9.08491 6.82334
rtoes -0.877634
lfemur 19.6758 -0.883332 -14.1936
ltibia 10.9073
lfoot -7.45763 11.6167
ltoes -31.9635
